<svg xmlns="http://www.w3.org/2000/svg" xmlns:xlink="http://www.w3.org/1999/xlink" preserveAspectRatio="xMidYMid" width="32" height="32" viewBox="0 0 32 32">
  <defs>
    <style>
      .cls-1 {
        fill: black;
        fill-rule: evenodd;
      }
    </style>
  </defs>
  <g id="artboard-1">
    <path d="M26.000,32.000 L6.000,32.000 C4.895,32.000 4.000,31.104 4.000,30.000 L4.000,7.000 C4.000,6.448 4.448,6.000 5.000,6.000 L10.000,6.000 C10.000,2.686 12.686,-0.000 16.000,-0.000 C19.314,-0.000 22.000,2.686 22.000,6.000 L27.000,6.000 C27.552,6.000 28.000,6.448 28.000,7.000 L28.000,30.000 C28.000,31.104 27.105,32.000 26.000,32.000 ZM7.000,30.000 L25.000,30.000 C25.552,30.000 26.000,29.552 26.000,29.000 L26.000,27.000 L6.000,27.000 L6.000,29.000 C6.000,29.552 6.448,30.000 7.000,30.000 ZM16.000,2.000 C13.791,2.000 12.000,3.791 12.000,6.000 L20.000,6.000 C20.000,3.791 18.209,2.000 16.000,2.000 ZM22.000,8.000 L22.000,11.000 C22.000,11.552 21.552,12.000 21.000,12.000 C20.448,12.000 20.000,11.552 20.000,11.000 L20.000,8.000 L12.000,8.000 L12.000,11.000 C12.000,11.552 11.552,12.000 11.000,12.000 C10.448,12.000 10.000,11.552 10.000,11.000 L10.000,8.000 L6.000,8.000 L6.000,25.000 L26.000,25.000 L26.000,8.000 L22.000,8.000 Z" class="cls-1"/>
  </g>
</svg>
