<svg xmlns="http://www.w3.org/2000/svg" xmlns:xlink="http://www.w3.org/1999/xlink" preserveAspectRatio="xMidYMid" width="24" height="24" viewBox="0 0 24 24">
  <defs>
    <style>
      .cls-1 {
        fill: #232323;
        fill-rule: evenodd;
      }
    </style>
  </defs>
  <g id="artboard-1">
    <path d="M23.000,4.000 L21.950,4.000 L21.000,23.000 C21.000,23.552 20.552,24.000 20.000,24.000 L4.000,24.000 C3.448,24.000 3.000,23.552 3.000,23.000 L2.050,4.000 L1.000,4.000 C0.448,4.000 -0.000,3.552 -0.000,3.000 C-0.000,2.448 0.448,2.000 1.000,2.000 L11.000,2.000 L11.000,1.000 C11.000,0.448 11.448,-0.000 12.000,-0.000 C12.552,-0.000 13.000,0.448 13.000,1.000 L13.000,2.000 L23.000,2.000 C23.552,2.000 24.000,2.448 24.000,3.000 C24.000,3.552 23.552,4.000 23.000,4.000 ZM4.050,4.000 L4.950,22.000 L19.050,22.000 L19.950,4.000 L4.050,4.000 Z" class="cls-1"/>
  </g>
</svg>
