<svg xmlns="http://www.w3.org/2000/svg" xmlns:xlink="http://www.w3.org/1999/xlink" preserveAspectRatio="xMidYMid" width="32" height="32" viewBox="0 0 32 32">
  <defs>
    <style>
      .cls-1 {
        fill: black;
        fill-rule: evenodd;
      }
    </style>
  </defs>
  <g id="artboard-1">
    <path d="M31.000,23.000 L28.000,23.000 C28.000,25.761 25.761,27.998 23.000,27.998 C20.239,27.998 18.000,25.761 18.000,23.000 L12.000,23.000 C12.000,25.761 9.761,27.998 7.000,27.998 C4.239,27.998 2.000,25.761 2.000,23.000 C0.895,23.000 0.000,22.104 0.000,21.000 L0.000,6.000 C0.000,4.896 0.895,4.000 2.000,4.000 L20.000,4.000 C21.105,4.000 22.000,4.896 22.000,6.000 L22.000,9.001 L31.000,9.001 C31.552,9.001 32.000,9.446 32.000,10.000 L32.000,14.999 L32.000,16.999 L32.000,21.999 C32.000,22.552 31.552,23.000 31.000,23.000 ZM23.000,25.998 C24.657,25.998 26.000,24.657 26.000,23.000 C26.000,21.342 24.657,20.000 23.000,20.000 C21.343,20.000 20.000,21.342 20.000,23.000 C20.000,24.657 21.343,25.998 23.000,25.998 ZM7.000,25.998 C8.657,25.998 10.000,24.657 10.000,23.000 C10.000,21.342 8.657,20.000 7.000,20.000 C5.343,20.000 4.000,21.342 4.000,23.000 C4.000,24.657 5.343,25.998 7.000,25.998 ZM20.000,6.999 C20.000,6.446 19.552,6.000 19.000,6.000 L3.000,6.000 C2.448,6.000 2.000,6.446 2.000,6.999 L2.000,20.000 C2.000,20.367 2.208,20.675 2.504,20.849 C3.310,19.169 5.012,18.000 7.000,18.000 C9.049,18.000 10.806,19.235 11.578,21.000 L18.422,21.000 C18.768,20.209 19.320,19.536 20.000,19.022 L20.000,16.999 L20.000,14.999 L20.000,6.999 ZM30.000,10.999 L22.000,10.999 L22.000,14.999 L30.000,14.999 L30.000,10.999 ZM22.000,16.999 L22.000,18.100 C22.323,18.035 22.658,18.000 23.000,18.000 C25.049,18.000 26.806,19.235 27.578,21.000 L30.000,21.000 L30.000,16.999 L22.000,16.999 Z" class="cls-1"/>
  </g>
</svg>
