<svg xmlns="http://www.w3.org/2000/svg" xmlns:xlink="http://www.w3.org/1999/xlink" preserveAspectRatio="xMidYMid" width="32" height="32" viewBox="0 0 32 32">
  <defs>
    <style>
      .cls-1 {
        fill: black;
        fill-rule: evenodd;
      }
    </style>
  </defs>
  <g id="artboard-1">
    <path d="M31.000,28.000 L1.000,28.000 C0.448,28.000 -0.000,27.552 -0.000,27.000 L-0.000,5.000 C-0.000,4.448 0.448,4.000 1.000,4.000 L31.000,4.000 C31.552,4.000 32.000,4.448 32.000,5.000 L32.000,27.000 C32.000,27.552 31.552,28.000 31.000,28.000 ZM30.000,6.000 L2.000,6.000 L2.000,10.000 L30.000,10.000 L30.000,6.000 ZM30.000,12.000 L2.000,12.000 L2.000,14.000 L30.000,14.000 L30.000,12.000 ZM30.000,16.000 L2.000,16.000 L2.000,26.000 L30.000,26.000 L30.000,16.000 ZM25.000,18.000 L27.000,18.000 C27.552,18.000 28.000,18.448 28.000,19.000 C28.000,19.552 27.552,20.000 27.000,20.000 L25.000,20.000 C24.448,20.000 24.000,19.552 24.000,19.000 C24.000,18.448 24.448,18.000 25.000,18.000 Z" class="cls-1"/>
  </g>
</svg>
